<svg width="862" height="582" viewBox="0 0 862 582" fill="none" xmlns="http://www.w3.org/2000/svg">
<path d="M407.048 420.271C408.313 418.898 409.423 417.392 410.36 415.778C411.694 413.62 412.54 411.197 412.841 408.678C414.398 394.927 399.89 381.001 394.127 369.119C384.638 350.296 378.374 330.02 375.597 309.132C373.598 293.688 370.241 274.24 355.11 270.843C339.979 267.445 328.632 283.969 321.936 297.982C326.061 258.529 326.099 218.755 322.049 179.291C320.845 167.605 319.075 155.372 312.098 145.961C307.177 139.626 300.286 135.107 292.511 133.116C284.736 131.124 276.52 131.774 269.158 134.963C263.016 138.024 257.863 142.755 254.293 148.612C250.723 154.468 248.881 161.213 248.977 168.07C245.773 140.334 241.783 112.469 230.597 86.9462C222.528 68.5372 208.092 50.1888 188.071 48.3041C171.569 46.7972 156.322 57.2871 145.646 70.041C136.397 82.0151 129.726 95.77 126.052 110.443C122.379 125.116 121.78 140.39 124.296 155.307C129.542 185.233 143.329 213.012 164 235.305C142.7 232.303 124.007 253.915 123.679 275.527C123.35 297.139 136.463 316.479 151.914 331.417C185.113 363.176 229.543 380.525 275.496 379.672C263.51 381.378 258.571 397.898 264.267 408.66C269.962 419.423 282.127 424.902 293.82 428.338C318.027 435.447 385.185 443.981 407.048 420.271Z" fill="#5DA33E"/>
<path d="M407.048 420.271C408.313 418.898 409.423 417.392 410.36 415.778C411.694 413.62 412.54 411.197 412.841 408.678C414.398 394.927 399.89 381.001 394.127 369.119C384.638 350.296 378.374 330.02 375.597 309.132C373.598 293.688 370.241 274.24 355.11 270.843C339.979 267.445 328.632 283.969 321.936 297.982C326.061 258.529 326.099 218.755 322.049 179.291C320.845 167.605 319.075 155.372 312.098 145.961C307.177 139.626 300.286 135.107 292.511 133.116C284.736 131.124 276.52 131.774 269.158 134.963C263.016 138.024 257.863 142.755 254.293 148.612C250.723 154.468 248.881 161.213 248.977 168.07C245.773 140.334 241.783 112.469 230.597 86.9462C222.528 68.5372 208.092 50.1888 188.071 48.3041C171.569 46.7972 156.322 57.2871 145.646 70.041C136.397 82.0151 129.726 95.77 126.052 110.443C122.379 125.116 121.78 140.39 124.296 155.307C129.542 185.233 143.329 213.012 164 235.305C142.7 232.303 124.007 253.915 123.679 275.527C123.35 297.139 136.463 316.479 151.914 331.417C185.113 363.176 229.543 380.525 275.496 379.672C263.51 381.378 258.571 397.898 264.267 408.66C269.962 419.423 282.127 424.902 293.82 428.338C318.027 435.447 385.185 443.981 407.048 420.271Z" fill="url(#paint0_linear_177_7)" fill-opacity="0.75"/>
<path d="M407.048 420.271C408.313 418.898 409.424 417.391 410.361 415.777C411.694 413.619 412.541 411.197 412.841 408.678C398.347 399.877 384.272 390.472 370.616 380.465L365.447 348.728C364.991 347.104 363.926 345.718 362.474 344.858C361.022 343.997 359.294 343.727 357.649 344.104C356.004 344.481 354.567 345.477 353.637 346.884C352.707 348.29 352.355 350.001 352.655 351.661L355.688 368.787C325.889 345.19 298.638 318.548 274.379 289.298L284.29 226.939C284.31 225.221 283.665 223.562 282.489 222.308C281.314 221.053 279.699 220.301 277.982 220.207C276.249 220.196 274.577 220.844 273.306 222.02C272.034 223.196 271.259 224.811 271.138 226.537L263.063 275.594C241.474 247.692 222.627 217.778 206.782 186.267C215.729 176.833 220.982 164.501 221.583 151.518C221.62 149.801 220.981 148.137 219.803 146.885C218.626 145.632 217.004 144.89 215.286 144.819C213.567 144.747 211.889 145.351 210.612 146.501C209.335 147.651 208.561 149.255 208.455 150.97C208.065 159.038 205.33 166.817 200.583 173.356C194.35 160.036 188.592 146.592 183.488 132.853C180.647 124.979 167.797 127.953 170.695 135.786C175.173 147.507 179.887 158.713 184.888 170.319C178.4 167.135 171.846 164.04 165.358 160.856C163.859 159.981 162.08 159.715 160.391 160.112C158.701 160.509 157.229 161.539 156.278 162.99C155.368 164.47 155.083 166.251 155.485 167.942C155.888 169.633 156.946 171.096 158.426 172.01C170.207 177.677 181.783 183.362 193.719 189.004C198.446 198.6 203.295 208.065 208.627 217.357C222.328 241.373 237.787 264.346 254.878 286.088C241.649 288.692 228.297 290.632 214.873 291.898C213.133 291.862 211.448 292.502 210.171 293.683C208.895 294.864 208.127 296.493 208.029 298.229C207.984 299.957 208.618 301.634 209.795 302.902C210.973 304.169 212.601 304.926 214.329 305.01C231.065 303.485 247.698 300.991 264.143 297.539C288.829 327.192 316.498 354.236 346.715 378.244C338.955 379.221 331.132 379.618 323.312 379.431C321.585 379.373 319.903 379.993 318.627 381.158C317.351 382.322 316.582 383.939 316.485 385.663C316.504 387.339 317.146 388.948 318.286 390.178C319.426 391.409 320.982 392.173 322.654 392.322C335.441 392.741 348.234 391.72 360.791 389.278C375.672 400.388 391.111 410.732 407.048 420.271Z" fill="#98D86F"/>
<path d="M407.048 420.271C408.313 418.898 409.424 417.391 410.361 415.777C411.694 413.619 412.541 411.197 412.841 408.678C398.347 399.877 384.272 390.472 370.616 380.465L365.447 348.728C364.991 347.104 363.926 345.718 362.474 344.858C361.022 343.997 359.294 343.727 357.649 344.104C356.004 344.481 354.567 345.477 353.637 346.884C352.707 348.29 352.355 350.001 352.655 351.661L355.688 368.787C325.889 345.19 298.638 318.548 274.379 289.298L284.29 226.939C284.31 225.221 283.665 223.562 282.489 222.308C281.314 221.053 279.699 220.301 277.982 220.207C276.249 220.196 274.577 220.844 273.306 222.02C272.034 223.196 271.259 224.811 271.138 226.537L263.063 275.594C241.474 247.692 222.627 217.778 206.782 186.267C215.729 176.833 220.982 164.501 221.583 151.518C221.62 149.801 220.981 148.137 219.803 146.885C218.626 145.632 217.004 144.89 215.286 144.819C213.567 144.747 211.889 145.351 210.612 146.501C209.335 147.651 208.561 149.255 208.455 150.97C208.065 159.038 205.33 166.817 200.583 173.356C194.35 160.036 188.592 146.592 183.488 132.853C180.647 124.979 167.797 127.953 170.695 135.786C175.173 147.507 179.887 158.713 184.888 170.319C178.4 167.135 171.846 164.04 165.358 160.856C163.859 159.981 162.08 159.715 160.391 160.112C158.701 160.509 157.229 161.539 156.278 162.99C155.368 164.47 155.083 166.251 155.485 167.942C155.888 169.633 156.946 171.096 158.426 172.01C170.207 177.677 181.783 183.362 193.719 189.004C198.446 198.6 203.295 208.065 208.627 217.357C222.328 241.373 237.787 264.346 254.878 286.088C241.649 288.692 228.297 290.632 214.873 291.898C213.133 291.862 211.448 292.502 210.171 293.683C208.895 294.864 208.127 296.493 208.029 298.229C207.984 299.957 208.618 301.634 209.795 302.902C210.973 304.169 212.601 304.926 214.329 305.01C231.065 303.485 247.698 300.991 264.143 297.539C288.829 327.192 316.498 354.236 346.715 378.244C338.955 379.221 331.132 379.618 323.312 379.431C321.585 379.373 319.903 379.993 318.627 381.158C317.351 382.322 316.582 383.939 316.485 385.663C316.504 387.339 317.146 388.948 318.286 390.178C319.426 391.409 320.982 392.173 322.654 392.322C335.441 392.741 348.234 391.72 360.791 389.278C375.672 400.388 391.111 410.732 407.048 420.271Z" fill="url(#paint1_linear_177_7)"/>
<path d="M443.65 425.763C442.373 424.408 441.256 422.91 440.322 421.3C439.005 419.065 438.16 416.584 437.838 414.011C436.347 400.276 450.854 386.491 456.815 374.59C466.223 355.914 472.452 335.805 475.246 315.087C477.332 299.815 480.661 280.377 495.813 276.956C510.965 273.535 522.291 290.295 528.898 304.327C524.825 264.978 524.825 225.315 528.898 185.966C530.14 174.264 531.979 162.115 538.834 152.743C543.765 146.448 550.654 141.968 558.416 140.011C566.178 138.054 574.372 138.731 581.707 141.934C587.771 145.007 592.848 149.717 596.362 155.53C599.875 161.342 601.682 168.022 601.578 174.809C604.907 147.19 608.931 119.372 620.158 93.9843C628.653 75.5879 643.258 57.2907 663.428 55.4065C679.722 54.1172 695.123 64.5303 705.555 77.3234C714.745 89.3052 721.358 103.051 724.983 117.7C728.607 132.35 729.164 147.588 726.619 162.462C721.3 192.278 707.504 219.938 686.876 242.147C708.138 239.172 726.619 260.989 727.016 282.361C727.414 303.732 713.951 323.17 698.501 338.046C665.271 369.612 620.862 386.747 575 385.698C587.022 387.433 591.891 403.945 586.178 414.656C580.465 425.366 568.244 430.821 556.619 434.193C532.376 441.184 465.409 449.465 443.65 425.763Z" fill="#5DA33E"/>
<path d="M443.65 425.763C442.373 424.408 441.256 422.91 440.322 421.3C439.005 419.065 438.16 416.584 437.838 414.011C436.347 400.276 450.854 386.491 456.815 374.59C466.223 355.914 472.452 335.805 475.246 315.087C477.332 299.815 480.661 280.377 495.813 276.956C510.965 273.535 522.291 290.295 528.898 304.327C524.825 264.978 524.825 225.315 528.898 185.966C530.14 174.264 531.979 162.115 538.834 152.743C543.765 146.448 550.654 141.968 558.416 140.011C566.178 138.054 574.372 138.731 581.707 141.934C587.771 145.007 592.848 149.717 596.362 155.53C599.875 161.342 601.682 168.022 601.578 174.809C604.907 147.19 608.931 119.372 620.158 93.9843C628.653 75.5879 643.258 57.2907 663.428 55.4065C679.722 54.1172 695.123 64.5303 705.555 77.3234C714.745 89.3052 721.358 103.051 724.983 117.7C728.607 132.35 729.164 147.588 726.619 162.462C721.3 192.278 707.504 219.938 686.876 242.147C708.138 239.172 726.619 260.989 727.016 282.361C727.414 303.732 713.951 323.17 698.501 338.046C665.271 369.612 620.862 386.747 575 385.698C587.022 387.433 591.891 403.945 586.178 414.656C580.465 425.366 568.244 430.821 556.619 434.193C532.376 441.184 465.409 449.465 443.65 425.763Z" fill="url(#paint2_linear_177_7)" fill-opacity="0.75"/>
<path d="M443.651 425.763C442.374 424.407 441.257 422.91 440.322 421.3C439.006 419.065 438.16 416.584 437.838 414.011C452.344 405.35 466.42 396.028 480.065 386.045C481.853 375.483 483.592 364.971 485.331 354.409C485.763 352.758 486.824 351.34 488.287 350.458C489.751 349.576 491.502 349.3 493.167 349.688C494.832 350.076 496.279 351.098 497.2 352.535C498.121 353.973 498.444 355.713 498.098 357.384L495.267 374.541C524.986 351.099 552.19 324.644 576.441 295.6C573.129 274.84 569.817 254.097 566.506 233.37C566.464 231.64 567.101 229.963 568.279 228.695C569.457 227.426 571.084 226.666 572.815 226.576C574.54 226.56 576.207 227.203 577.472 228.374C578.738 229.545 579.507 231.155 579.621 232.874C582.138 249.402 584.688 265.749 587.271 281.914C609.089 254.207 628.156 224.447 644.203 193.056C635.283 183.63 630.078 171.302 629.548 158.346C629.614 156.7 630.3 155.14 631.468 153.977C632.637 152.813 634.202 152.132 635.851 152.07C637.5 152.007 639.112 152.568 640.365 153.639C641.619 154.711 642.421 156.214 642.613 157.851C642.974 165.889 645.686 173.646 650.413 180.164C656.672 166.925 662.435 153.537 667.601 139.851C670.483 132.016 683.3 134.892 680.319 142.876C675.947 154.479 671.128 165.883 666.111 177.189L685.585 167.867C687.076 166.988 688.85 166.72 690.535 167.117C692.221 167.515 693.687 168.547 694.626 169.999C695.081 170.731 695.387 171.546 695.526 172.396C695.665 173.246 695.634 174.116 695.436 174.954C695.237 175.793 694.875 176.584 694.369 177.282C693.864 177.98 693.225 178.572 692.49 179.024C680.716 184.577 668.943 190.23 657.219 195.833C652.499 205.403 647.581 214.825 642.315 224.048C628.559 247.963 613.033 270.82 595.866 292.426C609.005 295.071 622.269 297.057 635.608 298.377C637.334 298.36 639 299.004 640.266 300.175C641.532 301.346 642.3 302.955 642.414 304.674C642.455 306.398 641.817 308.07 640.638 309.331C639.459 310.591 637.831 311.341 636.105 311.418C619.408 309.886 602.819 307.353 586.427 303.831C561.742 333.289 534.111 360.155 503.96 384.011C511.704 384.974 519.51 385.339 527.309 385.102C528.177 385.056 529.046 385.18 529.866 385.469C530.685 385.758 531.44 386.205 532.086 386.786C532.732 387.366 533.257 388.068 533.631 388.851C534.004 389.635 534.22 390.484 534.264 391.35C534.293 393.076 533.653 394.746 532.477 396.012C531.301 397.278 529.681 398.041 527.955 398.143C515.175 398.529 502.392 397.464 489.852 394.97C474.989 406.017 459.569 416.294 443.651 425.763Z" fill="#98D86F"/>
<path d="M443.651 425.763C442.374 424.407 441.257 422.91 440.322 421.3C439.006 419.065 438.16 416.584 437.838 414.011C452.344 405.35 466.42 396.028 480.065 386.045C481.853 375.483 483.592 364.971 485.331 354.409C485.763 352.758 486.824 351.34 488.287 350.458C489.751 349.576 491.502 349.3 493.167 349.688C494.832 350.076 496.279 351.098 497.2 352.535C498.121 353.973 498.444 355.713 498.098 357.384L495.267 374.541C524.986 351.099 552.19 324.644 576.441 295.6C573.129 274.84 569.817 254.097 566.506 233.37C566.464 231.64 567.101 229.963 568.279 228.695C569.457 227.426 571.084 226.666 572.815 226.576C574.54 226.56 576.207 227.203 577.472 228.374C578.738 229.545 579.507 231.155 579.621 232.874C582.138 249.402 584.688 265.749 587.271 281.914C609.089 254.207 628.156 224.447 644.203 193.056C635.283 183.63 630.078 171.302 629.548 158.346C629.614 156.7 630.3 155.14 631.468 153.977C632.637 152.813 634.202 152.132 635.851 152.07C637.5 152.007 639.112 152.568 640.365 153.639C641.619 154.711 642.421 156.214 642.613 157.851C642.974 165.889 645.686 173.646 650.413 180.164C656.672 166.925 662.435 153.537 667.601 139.851C670.483 132.016 683.3 134.892 680.319 142.876C675.947 154.479 671.128 165.883 666.111 177.189L685.585 167.867C687.076 166.988 688.85 166.72 690.535 167.117C692.221 167.515 693.687 168.547 694.626 169.999C695.081 170.731 695.387 171.546 695.526 172.396C695.665 173.246 695.634 174.116 695.436 174.954C695.237 175.793 694.875 176.584 694.369 177.282C693.864 177.98 693.225 178.572 692.49 179.024C680.716 184.577 668.943 190.23 657.219 195.833C652.499 205.403 647.581 214.825 642.315 224.048C628.559 247.963 613.033 270.82 595.866 292.426C609.005 295.071 622.269 297.057 635.608 298.377C637.334 298.36 639 299.004 640.266 300.175C641.532 301.346 642.3 302.955 642.414 304.674C642.455 306.398 641.817 308.07 640.638 309.331C639.459 310.591 637.831 311.341 636.105 311.418C619.408 309.886 602.819 307.353 586.427 303.831C561.742 333.289 534.111 360.155 503.96 384.011C511.704 384.974 519.51 385.339 527.309 385.102C528.177 385.056 529.046 385.18 529.866 385.469C530.685 385.758 531.44 386.205 532.086 386.786C532.732 387.366 533.257 388.068 533.631 388.851C534.004 389.635 534.22 390.484 534.264 391.35C534.293 393.076 533.653 394.746 532.477 396.012C531.301 397.278 529.681 398.041 527.955 398.143C515.175 398.529 502.392 397.464 489.852 394.97C474.989 406.017 459.569 416.294 443.651 425.763Z" fill="url(#paint3_linear_177_7)"/>
<path d="M427.147 568.956C610.077 568.956 768.017 450.964 847.833 279.346C853.305 267.58 844.469 254.163 831.47 254.589C784.156 256.141 735.898 261.913 687.331 272.223C516 308.594 371.015 395.047 272.387 507.544C262.2 519.164 266.638 537.49 281.337 542.901C327.29 559.817 376.292 568.956 427.147 568.956Z" fill="#FB8428"/>
<path d="M427.147 568.956C610.077 568.956 768.017 450.964 847.833 279.346C853.305 267.58 844.469 254.163 831.47 254.589C784.156 256.141 735.898 261.913 687.331 272.223C516 308.594 371.015 395.047 272.387 507.544C262.2 519.164 266.638 537.49 281.337 542.901C327.29 559.817 376.292 568.956 427.147 568.956Z" fill="url(#paint4_linear_177_7)" fill-opacity="0.2"/>
<path d="M427.147 568.956C610.077 568.956 768.017 450.964 847.833 279.346C853.305 267.58 844.469 254.163 831.47 254.589C784.156 256.141 735.898 261.913 687.331 272.223C516 308.594 371.015 395.047 272.387 507.544C262.2 519.164 266.638 537.49 281.337 542.901C327.29 559.817 376.292 568.956 427.147 568.956Z" stroke="white" stroke-width="25" stroke-linejoin="round"/>
<path d="M431.884 358.434C348.494 312.504 252.332 280.494 148.136 267.285C105.867 261.927 64.1074 259.895 23.2444 260.952C13.1968 261.212 6.7102 271.697 11.0113 280.81C61.6497 388.095 142.951 473.8 241.733 522.157C249.361 525.891 258.33 523.97 263.915 517.965C311.419 466.889 368.098 421.091 432.267 382.703C441.385 377.249 441.502 363.732 431.884 358.434Z" fill="#FB8428"/>
<path d="M431.884 358.434C348.494 312.504 252.332 280.494 148.136 267.285C105.867 261.927 64.1074 259.895 23.2444 260.952C13.1968 261.212 6.7102 271.697 11.0113 280.81C61.6497 388.095 142.951 473.8 241.733 522.157C249.361 525.891 258.33 523.97 263.915 517.965C311.419 466.889 368.098 421.091 432.267 382.703C441.385 377.249 441.502 363.732 431.884 358.434Z" fill="url(#paint5_linear_177_7)" fill-opacity="0.2"/>
<path d="M431.884 358.434C348.494 312.504 252.332 280.494 148.136 267.285C105.867 261.927 64.1074 259.895 23.2444 260.952C13.1968 261.212 6.7102 271.697 11.0113 280.81C61.6497 388.095 142.951 473.8 241.733 522.157C249.361 525.891 258.33 523.97 263.915 517.965C311.419 466.889 368.098 421.091 432.267 382.703C441.385 377.249 441.502 363.732 431.884 358.434Z" stroke="white" stroke-width="18" stroke-linejoin="round"/>
<path d="M423.386 4.00095C423.67 3.0804 424.189 2.28504 424.871 1.72297C425.554 1.1609 426.367 0.859375 427.2 0.859375C428.034 0.859375 428.847 1.1609 429.53 1.72297C430.212 2.28504 430.731 3.0804 431.015 4.00095L434.895 16.4561C437.938 26.2203 442.755 35.0875 449.013 42.44C455.27 49.7926 462.817 55.4537 471.127 59.0289L481.719 63.5875C482.502 63.9216 483.179 64.5311 483.658 65.333C484.136 66.135 484.393 67.0905 484.393 68.0698C484.393 69.0492 484.136 70.0047 483.658 70.8067C483.179 71.6086 482.502 72.2181 481.719 72.5522L471.127 77.1108C462.817 80.686 455.27 86.3471 449.013 93.6996C442.755 101.052 437.938 109.919 434.895 119.684L431.015 132.129C430.731 133.05 430.212 133.845 429.53 134.407C428.847 134.969 428.034 135.271 427.2 135.271C426.367 135.271 425.554 134.969 424.871 134.407C424.189 133.845 423.67 133.05 423.386 132.129L419.506 119.684C416.463 109.919 411.645 101.052 405.388 93.6996C399.13 86.3471 391.584 80.686 383.274 77.1108L372.674 72.5522C371.89 72.2181 371.213 71.6086 370.735 70.8067C370.257 70.0047 370 69.0492 370 68.0698C370 67.0905 370.257 66.135 370.735 65.333C371.213 64.5311 371.89 63.9216 372.674 63.5875L383.274 59.0289C391.584 55.4537 399.13 49.7926 405.388 42.44C411.645 35.0875 416.463 26.2203 419.506 16.4561L423.386 4.00095Z" fill="#EEA23A"/>
<defs>
<linearGradient id="paint0_linear_177_7" x1="56.716" y1="423.309" x2="500.898" y2="295.348" gradientUnits="userSpaceOnUse">
<stop stop-color="#BEFF32"/>
<stop offset="0.280196" stop-color="#A6E835" stop-opacity="0.747561"/>
<stop offset="1" stop-color="#5DA33E" stop-opacity="0"/>
</linearGradient>
<linearGradient id="paint1_linear_177_7" x1="141.553" y1="249.449" x2="431.219" y2="297.127" gradientUnits="userSpaceOnUse">
<stop stop-color="#FFEE6A"/>
<stop offset="0.264423" stop-color="#DBE86B" stop-opacity="0.84399"/>
<stop offset="1" stop-color="#98D86F" stop-opacity="0.41"/>
</linearGradient>
<linearGradient id="paint2_linear_177_7" x1="754.5" y1="35.2422" x2="477" y2="441.242" gradientUnits="userSpaceOnUse">
<stop stop-color="#BEFF32"/>
<stop offset="0.280196" stop-color="#A6E835" stop-opacity="0.747561"/>
<stop offset="1" stop-color="#5DA33E" stop-opacity="0"/>
</linearGradient>
<linearGradient id="paint3_linear_177_7" x1="566.725" y1="135.229" x2="566.725" y2="425.763" gradientUnits="userSpaceOnUse">
<stop stop-color="#FFEE6A"/>
<stop offset="0.264423" stop-color="#DBE86B" stop-opacity="0.84399"/>
<stop offset="1" stop-color="#98D86F" stop-opacity="0.41"/>
</linearGradient>
<linearGradient id="paint4_linear_177_7" x1="556.317" y1="266.863" x2="556.317" y2="556.456" gradientUnits="userSpaceOnUse">
<stop stop-color="#FB8428" stop-opacity="0"/>
<stop offset="1" stop-color="#F0FFAC"/>
</linearGradient>
<linearGradient id="paint5_linear_177_7" x1="225.565" y1="269.682" x2="225.565" y2="517.256" gradientUnits="userSpaceOnUse">
<stop stop-color="#FB8428" stop-opacity="0"/>
<stop offset="1" stop-color="#F0FFAC"/>
</linearGradient>
</defs>
</svg>
