<svg width="824" height="556" viewBox="0 0 824 556" fill="none" xmlns="http://www.w3.org/2000/svg">
<mask id="mask0_166_3" style="mask-type:alpha" maskUnits="userSpaceOnUse" x="62" y="0" width="705" height="349">
<path fill-rule="evenodd" clip-rule="evenodd" d="M766.65 0H62.6504V251.544C85.9893 252.52 109.551 254.491 133.268 257.497C238.052 270.78 334.862 302.885 418.968 349H431.482C502.352 308.429 582.279 277.49 668.736 259.136C701.569 252.166 734.27 247.238 766.65 244.259V0ZM766.65 269.368C735.993 272.277 705.028 276.989 673.927 283.591C606.172 297.975 542.651 320.296 484.625 349H766.65V269.368ZM379.87 349C305.122 312.414 221.126 286.779 131.005 275.354C108.044 272.444 85.2379 270.525 62.6504 269.56V349H379.87Z" fill="#D9D9D9"/>
</mask>
<g mask="url(#mask0_166_3)">
<path d="M391.048 419.411C392.313 418.038 393.423 416.532 394.36 414.918C395.694 412.76 396.54 410.337 396.841 407.818C398.398 394.067 383.89 380.141 378.127 368.259C368.638 349.437 362.374 329.16 359.597 308.273C357.598 292.828 354.241 273.38 339.11 269.983C323.979 266.585 312.632 283.109 305.936 297.122C310.061 257.67 310.099 217.895 306.049 178.432C304.845 166.745 303.075 154.512 296.098 145.101C291.177 138.766 284.286 134.247 276.511 132.256C268.736 130.264 260.52 130.914 253.158 134.103C247.016 137.164 241.863 141.895 238.293 147.752C234.723 153.608 232.881 160.353 232.977 167.21C229.773 139.474 225.783 111.609 214.597 86.0864C206.528 67.6774 192.092 49.3289 172.071 47.4442C155.569 45.9373 140.322 56.4272 129.646 69.1811C120.397 81.1552 113.726 94.9102 110.053 109.583C106.379 124.256 105.78 139.53 108.296 154.447C113.542 184.373 127.329 212.152 148 234.445C126.7 231.443 108.007 253.055 107.679 274.667C107.35 296.279 120.463 315.619 135.914 330.557C169.113 362.317 213.543 379.665 259.496 378.813C247.51 380.518 242.571 397.038 248.267 407.8C253.962 418.563 266.127 424.042 277.82 427.479C302.027 434.587 369.185 443.122 391.048 419.411Z" fill="#5DA33E"/>
<path d="M391.048 419.411C392.313 418.038 393.423 416.532 394.36 414.918C395.694 412.76 396.54 410.337 396.841 407.818C398.398 394.067 383.89 380.141 378.127 368.259C368.638 349.437 362.374 329.16 359.597 308.273C357.598 292.828 354.241 273.38 339.11 269.983C323.979 266.585 312.632 283.109 305.936 297.122C310.061 257.67 310.099 217.895 306.049 178.432C304.845 166.745 303.075 154.512 296.098 145.101C291.177 138.766 284.286 134.247 276.511 132.256C268.736 130.264 260.52 130.914 253.158 134.103C247.016 137.164 241.863 141.895 238.293 147.752C234.723 153.608 232.881 160.353 232.977 167.21C229.773 139.474 225.783 111.609 214.597 86.0864C206.528 67.6774 192.092 49.3289 172.071 47.4442C155.569 45.9373 140.322 56.4272 129.646 69.1811C120.397 81.1552 113.726 94.9102 110.053 109.583C106.379 124.256 105.78 139.53 108.296 154.447C113.542 184.373 127.329 212.152 148 234.445C126.7 231.443 108.007 253.055 107.679 274.667C107.35 296.279 120.463 315.619 135.914 330.557C169.113 362.317 213.543 379.665 259.496 378.813C247.51 380.518 242.571 397.038 248.267 407.8C253.962 418.563 266.127 424.042 277.82 427.479C302.027 434.587 369.185 443.122 391.048 419.411Z" fill="url(#paint0_linear_166_3)" fill-opacity="0.75"/>
<path d="M391.048 419.411C392.313 418.038 393.424 416.532 394.361 414.918C395.694 412.76 396.541 410.337 396.841 407.818C382.347 399.017 368.272 389.613 354.616 379.605L349.447 347.868C348.991 346.244 347.926 344.859 346.474 343.998C345.022 343.137 343.294 342.867 341.649 343.244C340.004 343.621 338.567 344.617 337.637 346.024C336.707 347.431 336.355 349.141 336.655 350.801L339.688 367.927C309.889 344.33 282.638 317.689 258.379 288.438L268.29 226.079C268.31 224.361 267.665 222.702 266.489 221.448C265.314 220.193 263.699 219.441 261.982 219.347C260.249 219.336 258.577 219.984 257.306 221.16C256.034 222.336 255.259 223.951 255.138 225.677L247.063 274.734C225.474 246.832 206.627 216.918 190.782 185.407C199.729 175.973 204.982 163.641 205.583 150.659C205.62 148.941 204.981 147.278 203.803 146.025C202.626 144.772 201.004 144.03 199.286 143.959C197.567 143.887 195.889 144.491 194.612 145.641C193.335 146.791 192.561 148.396 192.455 150.11C192.065 158.178 189.33 165.957 184.583 172.496C178.35 159.176 172.592 145.732 167.488 131.993C164.647 124.119 151.797 127.093 154.695 134.926C159.173 146.647 163.887 157.853 168.888 169.459C162.4 166.275 155.846 163.181 149.358 159.996C147.859 159.121 146.08 158.855 144.391 159.252C142.701 159.649 141.229 160.679 140.278 162.13C139.368 163.61 139.083 165.392 139.485 167.083C139.888 168.773 140.946 170.236 142.426 171.15C154.207 176.817 165.783 182.502 177.719 188.145C182.446 197.74 187.295 207.205 192.627 216.497C206.328 240.513 221.787 263.486 238.878 285.228C225.649 287.833 212.297 289.772 198.873 291.038C197.133 291.003 195.448 291.643 194.171 292.823C192.895 294.004 192.127 295.633 192.029 297.369C191.984 299.097 192.618 300.774 193.795 302.042C194.973 303.309 196.601 304.066 198.329 304.15C215.065 302.625 231.698 300.131 248.143 296.679C272.829 326.332 300.498 353.376 330.715 377.384C322.955 378.361 315.132 378.758 307.312 378.571C305.585 378.513 303.903 379.133 302.627 380.298C301.351 381.462 300.582 383.08 300.485 384.803C300.504 386.479 301.146 388.088 302.286 389.318C303.426 390.549 304.982 391.313 306.654 391.462C319.441 391.881 332.234 390.86 344.791 388.418C359.672 399.528 375.111 409.873 391.048 419.411Z" fill="#98D86F"/>
<path d="M391.048 419.411C392.313 418.038 393.424 416.532 394.361 414.918C395.694 412.76 396.541 410.337 396.841 407.818C382.347 399.017 368.272 389.613 354.616 379.605L349.447 347.868C348.991 346.244 347.926 344.859 346.474 343.998C345.022 343.137 343.294 342.867 341.649 343.244C340.004 343.621 338.567 344.617 337.637 346.024C336.707 347.431 336.355 349.141 336.655 350.801L339.688 367.927C309.889 344.33 282.638 317.689 258.379 288.438L268.29 226.079C268.31 224.361 267.665 222.702 266.489 221.448C265.314 220.193 263.699 219.441 261.982 219.347C260.249 219.336 258.577 219.984 257.306 221.16C256.034 222.336 255.259 223.951 255.138 225.677L247.063 274.734C225.474 246.832 206.627 216.918 190.782 185.407C199.729 175.973 204.982 163.641 205.583 150.659C205.62 148.941 204.981 147.278 203.803 146.025C202.626 144.772 201.004 144.03 199.286 143.959C197.567 143.887 195.889 144.491 194.612 145.641C193.335 146.791 192.561 148.396 192.455 150.11C192.065 158.178 189.33 165.957 184.583 172.496C178.35 159.176 172.592 145.732 167.488 131.993C164.647 124.119 151.797 127.093 154.695 134.926C159.173 146.647 163.887 157.853 168.888 169.459C162.4 166.275 155.846 163.181 149.358 159.996C147.859 159.121 146.08 158.855 144.391 159.252C142.701 159.649 141.229 160.679 140.278 162.13C139.368 163.61 139.083 165.392 139.485 167.083C139.888 168.773 140.946 170.236 142.426 171.15C154.207 176.817 165.783 182.502 177.719 188.145C182.446 197.74 187.295 207.205 192.627 216.497C206.328 240.513 221.787 263.486 238.878 285.228C225.649 287.833 212.297 289.772 198.873 291.038C197.133 291.003 195.448 291.643 194.171 292.823C192.895 294.004 192.127 295.633 192.029 297.369C191.984 299.097 192.618 300.774 193.795 302.042C194.973 303.309 196.601 304.066 198.329 304.15C215.065 302.625 231.698 300.131 248.143 296.679C272.829 326.332 300.498 353.376 330.715 377.384C322.955 378.361 315.132 378.758 307.312 378.571C305.585 378.513 303.903 379.133 302.627 380.298C301.351 381.462 300.582 383.08 300.485 384.803C300.504 386.479 301.146 388.088 302.286 389.318C303.426 390.549 304.982 391.313 306.654 391.462C319.441 391.881 332.234 390.86 344.791 388.418C359.672 399.528 375.111 409.873 391.048 419.411Z" fill="url(#paint1_linear_166_3)"/>
<path d="M427.65 424.904C426.373 423.549 425.256 422.051 424.322 420.441C423.005 418.206 422.16 415.725 421.838 413.152C420.347 399.417 434.854 385.632 440.815 373.732C450.223 355.055 456.452 334.946 459.246 314.229C461.332 298.956 464.661 279.519 479.813 276.097C494.965 272.676 506.291 289.436 512.898 303.468C508.825 264.119 508.825 224.456 512.898 185.107C514.14 173.405 515.979 161.256 522.834 151.885C527.765 145.589 534.654 141.11 542.416 139.152C550.178 137.195 558.372 137.872 565.707 141.075C571.771 144.148 576.848 148.859 580.362 154.671C583.875 160.483 585.682 167.163 585.578 173.95C588.907 146.331 592.931 118.513 604.158 93.1254C612.653 74.729 627.258 56.4319 647.428 54.5476C663.722 53.2584 679.123 63.6714 689.555 76.4645C698.745 88.4463 705.358 102.192 708.983 116.841C712.607 131.491 713.164 146.729 710.619 161.603C705.3 191.419 691.504 219.079 670.876 241.288C692.138 238.313 710.619 260.13 711.016 281.502C711.414 302.873 697.951 322.311 682.501 337.187C649.271 368.753 604.862 385.888 559 384.839C571.022 386.574 575.891 403.086 570.178 413.797C564.465 424.507 552.244 429.962 540.619 433.334C516.376 440.325 449.409 448.606 427.65 424.904Z" fill="#5DA33E"/>
<path d="M427.65 424.904C426.373 423.549 425.256 422.051 424.322 420.441C423.005 418.206 422.16 415.725 421.838 413.152C420.347 399.417 434.854 385.632 440.815 373.732C450.223 355.055 456.452 334.946 459.246 314.229C461.332 298.956 464.661 279.519 479.813 276.097C494.965 272.676 506.291 289.436 512.898 303.468C508.825 264.119 508.825 224.456 512.898 185.107C514.14 173.405 515.979 161.256 522.834 151.885C527.765 145.589 534.654 141.11 542.416 139.152C550.178 137.195 558.372 137.872 565.707 141.075C571.771 144.148 576.848 148.859 580.362 154.671C583.875 160.483 585.682 167.163 585.578 173.95C588.907 146.331 592.931 118.513 604.158 93.1254C612.653 74.729 627.258 56.4319 647.428 54.5476C663.722 53.2584 679.123 63.6714 689.555 76.4645C698.745 88.4463 705.358 102.192 708.983 116.841C712.607 131.491 713.164 146.729 710.619 161.603C705.3 191.419 691.504 219.079 670.876 241.288C692.138 238.313 710.619 260.13 711.016 281.502C711.414 302.873 697.951 322.311 682.501 337.187C649.271 368.753 604.862 385.888 559 384.839C571.022 386.574 575.891 403.086 570.178 413.797C564.465 424.507 552.244 429.962 540.619 433.334C516.376 440.325 449.409 448.606 427.65 424.904Z" fill="url(#paint2_linear_166_3)" fill-opacity="0.75"/>
<path d="M427.651 424.904C426.374 423.549 425.257 422.052 424.322 420.442C423.006 418.206 422.16 415.726 421.838 413.153C436.344 404.492 450.42 395.169 464.065 385.186C465.853 374.624 467.592 364.112 469.331 353.55C469.763 351.899 470.824 350.482 472.287 349.6C473.751 348.718 475.502 348.442 477.167 348.83C478.832 349.217 480.279 350.239 481.2 351.677C482.121 353.114 482.444 354.854 482.098 356.526L479.267 373.682C508.986 350.24 536.19 323.785 560.441 294.742C557.129 273.982 553.817 253.238 550.506 232.511C550.464 230.782 551.101 229.105 552.279 227.836C553.457 226.568 555.084 225.808 556.815 225.718C558.54 225.702 560.207 226.345 561.472 227.516C562.738 228.687 563.507 230.297 563.621 232.015C566.138 248.544 568.688 264.891 571.271 281.056C593.089 253.348 612.156 223.589 628.203 192.198C619.283 182.771 614.078 170.444 613.548 157.488C613.614 155.842 614.3 154.282 615.468 153.118C616.637 151.955 618.202 151.274 619.851 151.211C621.5 151.149 623.112 151.709 624.365 152.781C625.619 153.852 626.421 155.356 626.613 156.992C626.974 165.031 629.686 172.788 634.413 179.306C640.672 166.066 646.435 152.678 651.601 138.992C654.483 131.158 667.3 134.034 664.319 142.017C659.947 153.62 655.128 165.025 650.111 176.331L669.585 167.008C671.076 166.13 672.85 165.861 674.535 166.259C676.221 166.656 677.687 167.689 678.626 169.141C679.081 169.873 679.387 170.687 679.526 171.538C679.665 172.388 679.634 173.257 679.436 174.096C679.237 174.934 678.875 175.725 678.369 176.424C677.864 177.122 677.225 177.714 676.49 178.165C664.716 183.719 652.943 189.372 641.219 194.975C636.499 204.545 631.581 213.966 626.315 223.189C612.559 247.105 597.033 269.962 579.866 291.568C593.005 294.213 606.269 296.199 619.608 297.518C621.334 297.502 623 298.145 624.266 299.316C625.532 300.487 626.3 302.097 626.414 303.816C626.455 305.54 625.817 307.212 624.638 308.472C623.459 309.733 621.831 310.482 620.105 310.559C603.408 309.028 586.819 306.494 570.427 302.973C545.742 332.43 518.111 359.296 487.96 383.153C495.704 384.116 503.51 384.48 511.309 384.244C512.177 384.197 513.046 384.322 513.866 384.611C514.685 384.899 515.44 385.347 516.086 385.927C516.732 386.508 517.257 387.21 517.631 387.993C518.004 388.776 518.22 389.625 518.264 390.492C518.293 392.218 517.653 393.888 516.477 395.154C515.301 396.419 513.681 397.183 511.955 397.285C499.175 397.67 486.392 396.606 473.852 394.112C458.989 405.158 443.569 415.436 427.651 424.904Z" fill="#98D86F"/>
<path d="M427.651 424.904C426.374 423.549 425.257 422.052 424.322 420.442C423.006 418.206 422.16 415.726 421.838 413.153C436.344 404.492 450.42 395.169 464.065 385.186C465.853 374.624 467.592 364.112 469.331 353.55C469.763 351.899 470.824 350.482 472.287 349.6C473.751 348.718 475.502 348.442 477.167 348.83C478.832 349.217 480.279 350.239 481.2 351.677C482.121 353.114 482.444 354.854 482.098 356.526L479.267 373.682C508.986 350.24 536.19 323.785 560.441 294.742C557.129 273.982 553.817 253.238 550.506 232.511C550.464 230.782 551.101 229.105 552.279 227.836C553.457 226.568 555.084 225.808 556.815 225.718C558.54 225.702 560.207 226.345 561.472 227.516C562.738 228.687 563.507 230.297 563.621 232.015C566.138 248.544 568.688 264.891 571.271 281.056C593.089 253.348 612.156 223.589 628.203 192.198C619.283 182.771 614.078 170.444 613.548 157.488C613.614 155.842 614.3 154.282 615.468 153.118C616.637 151.955 618.202 151.274 619.851 151.211C621.5 151.149 623.112 151.709 624.365 152.781C625.619 153.852 626.421 155.356 626.613 156.992C626.974 165.031 629.686 172.788 634.413 179.306C640.672 166.066 646.435 152.678 651.601 138.992C654.483 131.158 667.3 134.034 664.319 142.017C659.947 153.62 655.128 165.025 650.111 176.331L669.585 167.008C671.076 166.13 672.85 165.861 674.535 166.259C676.221 166.656 677.687 167.689 678.626 169.141C679.081 169.873 679.387 170.687 679.526 171.538C679.665 172.388 679.634 173.257 679.436 174.096C679.237 174.934 678.875 175.725 678.369 176.424C677.864 177.122 677.225 177.714 676.49 178.165C664.716 183.719 652.943 189.372 641.219 194.975C636.499 204.545 631.581 213.966 626.315 223.189C612.559 247.105 597.033 269.962 579.866 291.568C593.005 294.213 606.269 296.199 619.608 297.518C621.334 297.502 623 298.145 624.266 299.316C625.532 300.487 626.3 302.097 626.414 303.816C626.455 305.54 625.817 307.212 624.638 308.472C623.459 309.733 621.831 310.482 620.105 310.559C603.408 309.028 586.819 306.494 570.427 302.973C545.742 332.43 518.111 359.296 487.96 383.153C495.704 384.116 503.51 384.48 511.309 384.244C512.177 384.197 513.046 384.322 513.866 384.611C514.685 384.899 515.44 385.347 516.086 385.927C516.732 386.508 517.257 387.21 517.631 387.993C518.004 388.776 518.22 389.625 518.264 390.492C518.293 392.218 517.653 393.888 516.477 395.154C515.301 396.419 513.681 397.183 511.955 397.285C499.175 397.67 486.392 396.606 473.852 394.112C458.989 405.158 443.569 415.436 427.651 424.904Z" fill="url(#paint3_linear_166_3)"/>
</g>
<path fill-rule="evenodd" clip-rule="evenodd" d="M815.88 265.224C819.552 265.103 822.048 268.885 820.499 272.216C742.338 440.275 588.342 554.597 411.147 554.597C361.806 554.597 314.263 545.733 269.656 529.312C263.287 526.967 261.312 519.029 265.786 513.926C362.539 403.568 505.087 318.434 673.927 282.591C721.775 272.434 769.302 266.751 815.88 265.224Z" fill="#FB8428"/>
<path fill-rule="evenodd" clip-rule="evenodd" d="M815.88 265.224C819.552 265.103 822.048 268.885 820.499 272.216C742.338 440.275 588.342 554.597 411.147 554.597C361.806 554.597 314.263 545.733 269.656 529.312C263.287 526.967 261.312 519.029 265.786 513.926C362.539 403.568 505.087 318.434 673.927 282.591C721.775 272.434 769.302 266.751 815.88 265.224Z" fill="url(#paint4_linear_166_3)" fill-opacity="0.2"/>
<path fill-rule="evenodd" clip-rule="evenodd" d="M411.647 374.12C414.956 372.141 414.92 367.318 411.542 365.458C329.161 320.083 234.089 288.422 131.005 275.354C89.1873 270.053 47.8837 268.044 7.47716 269.089C3.91548 269.182 1.62945 272.887 3.15022 276.109C53.0076 381.739 132.926 465.845 229.69 513.214C233.626 515.141 238.341 514.185 241.325 510.976C289.43 459.253 346.779 412.926 411.647 374.12Z" fill="#FB8428"/>
<path fill-rule="evenodd" clip-rule="evenodd" d="M411.647 374.12C414.956 372.141 414.92 367.318 411.542 365.458C329.161 320.083 234.089 288.422 131.005 275.354C89.1873 270.053 47.8837 268.044 7.47716 269.089C3.91548 269.182 1.62945 272.887 3.15022 276.109C53.0076 381.739 132.926 465.845 229.69 513.214C233.626 515.141 238.341 514.185 241.325 510.976C289.43 459.253 346.779 412.926 411.647 374.12Z" fill="url(#paint5_linear_166_3)" fill-opacity="0.2"/>
<path fill-rule="evenodd" clip-rule="evenodd" d="M815.88 266.224C819.552 266.103 822.048 269.884 820.499 273.216C742.338 441.274 588.342 555.597 411.147 555.597C361.806 555.597 314.263 546.732 269.656 530.312C263.287 527.967 261.312 520.029 265.786 514.926C362.539 404.568 505.087 319.434 673.927 283.591C721.775 273.434 769.302 267.751 815.88 266.224Z" fill="#FB8428"/>
<path fill-rule="evenodd" clip-rule="evenodd" d="M815.88 266.224C819.552 266.103 822.048 269.884 820.499 273.216C742.338 441.274 588.342 555.597 411.147 555.597C361.806 555.597 314.263 546.732 269.656 530.312C263.287 527.967 261.312 520.029 265.786 514.926C362.539 404.568 505.087 319.434 673.927 283.591C721.775 273.434 769.302 267.751 815.88 266.224Z" fill="url(#paint6_linear_166_3)" fill-opacity="0.2"/>
<path fill-rule="evenodd" clip-rule="evenodd" d="M411.647 374.12C414.956 372.141 414.919 367.318 411.542 365.458C329.16 320.083 234.089 288.422 131.004 275.354C89.1871 270.053 47.8835 268.044 7.47696 269.089C3.91528 269.182 1.62925 272.887 3.15002 276.109C53.0074 381.739 132.926 465.845 229.69 513.214C233.625 515.141 238.341 514.185 241.325 510.976C289.43 459.253 346.779 412.926 411.647 374.12Z" fill="#FB8428"/>
<path fill-rule="evenodd" clip-rule="evenodd" d="M411.647 374.12C414.956 372.141 414.919 367.318 411.542 365.458C329.16 320.083 234.089 288.422 131.004 275.354C89.1871 270.053 47.8835 268.044 7.47696 269.089C3.91528 269.182 1.62925 272.887 3.15002 276.109C53.0074 381.739 132.926 465.845 229.69 513.214C233.625 515.141 238.341 514.185 241.325 510.976C289.43 459.253 346.779 412.926 411.647 374.12Z" fill="url(#paint7_linear_166_3)" fill-opacity="0.2"/>
<path d="M407.386 3.14158C407.67 2.22102 408.189 1.42567 408.871 0.863595C409.554 0.301524 410.367 0 411.2 0C412.034 0 412.847 0.301524 413.53 0.863595C414.212 1.42567 414.731 2.22102 415.015 3.14158L418.895 15.5968C421.938 25.3609 426.755 34.2281 433.013 41.5807C439.27 48.9332 446.817 54.5943 455.127 58.1695L465.719 62.7281C466.502 63.0622 467.179 63.6717 467.658 64.4736C468.136 65.2756 468.393 66.2312 468.393 67.2105C468.393 68.1898 468.136 69.1453 467.658 69.9473C467.179 70.7492 466.502 71.3587 465.719 71.6928L455.127 76.2514C446.817 79.8266 439.27 85.4877 433.013 92.8403C426.755 100.193 421.938 109.06 418.895 118.824L415.015 131.27C414.731 132.19 414.212 132.986 413.53 133.548C412.847 134.11 412.034 134.411 411.2 134.411C410.367 134.411 409.554 134.11 408.871 133.548C408.189 132.986 407.67 132.19 407.386 131.27L403.506 118.824C400.463 109.06 395.645 100.193 389.388 92.8403C383.13 85.4877 375.584 79.8266 367.274 76.2514L356.674 71.6928C355.89 71.3587 355.213 70.7492 354.735 69.9473C354.257 69.1453 354 68.1898 354 67.2105C354 66.2312 354.257 65.2756 354.735 64.4736C355.213 63.6717 355.89 63.0622 356.674 62.7281L367.274 58.1695C375.584 54.5943 383.13 48.9332 389.388 41.5807C395.645 34.2281 400.463 25.3609 403.506 15.5968L407.386 3.14158Z" fill="#EEA23A"/>
<defs>
<linearGradient id="paint0_linear_166_3" x1="40.716" y1="422.449" x2="484.898" y2="294.488" gradientUnits="userSpaceOnUse">
<stop stop-color="#BEFF32"/>
<stop offset="0.280196" stop-color="#A6E835" stop-opacity="0.747561"/>
<stop offset="1" stop-color="#5DA33E" stop-opacity="0"/>
</linearGradient>
<linearGradient id="paint1_linear_166_3" x1="125.553" y1="248.589" x2="415.219" y2="296.268" gradientUnits="userSpaceOnUse">
<stop stop-color="#FFEE6A"/>
<stop offset="0.264423" stop-color="#DBE86B" stop-opacity="0.84399"/>
<stop offset="1" stop-color="#98D86F" stop-opacity="0.41"/>
</linearGradient>
<linearGradient id="paint2_linear_166_3" x1="738.5" y1="34.3833" x2="461" y2="440.383" gradientUnits="userSpaceOnUse">
<stop stop-color="#BEFF32"/>
<stop offset="0.280196" stop-color="#A6E835" stop-opacity="0.747561"/>
<stop offset="1" stop-color="#5DA33E" stop-opacity="0"/>
</linearGradient>
<linearGradient id="paint3_linear_166_3" x1="550.725" y1="134.371" x2="550.725" y2="424.904" gradientUnits="userSpaceOnUse">
<stop stop-color="#FFEE6A"/>
<stop offset="0.264423" stop-color="#DBE86B" stop-opacity="0.84399"/>
<stop offset="1" stop-color="#98D86F" stop-opacity="0.41"/>
</linearGradient>
<linearGradient id="paint4_linear_166_3" x1="540.317" y1="265.004" x2="540.317" y2="554.597" gradientUnits="userSpaceOnUse">
<stop stop-color="#FB8428" stop-opacity="0"/>
<stop offset="1" stop-color="#F0FFAC"/>
</linearGradient>
<linearGradient id="paint5_linear_166_3" x1="209.565" y1="268.822" x2="209.565" y2="516.397" gradientUnits="userSpaceOnUse">
<stop stop-color="#FB8428" stop-opacity="0"/>
<stop offset="1" stop-color="#F0FFAC"/>
</linearGradient>
<linearGradient id="paint6_linear_166_3" x1="540.317" y1="266.004" x2="540.317" y2="555.597" gradientUnits="userSpaceOnUse">
<stop stop-color="#FB8428" stop-opacity="0"/>
<stop offset="1" stop-color="#F0FFAC"/>
</linearGradient>
<linearGradient id="paint7_linear_166_3" x1="209.565" y1="268.822" x2="209.565" y2="516.397" gradientUnits="userSpaceOnUse">
<stop stop-color="#FB8428" stop-opacity="0"/>
<stop offset="1" stop-color="#F0FFAC"/>
</linearGradient>
</defs>
</svg>
